<?xml version="1.0" standalone="no"?><!DOCTYPE svg PUBLIC "-//W3C//DTD SVG 1.1//EN" "http://www.w3.org/Graphics/SVG/1.1/DTD/svg11.dtd"><svg class="icon" width="200px" height="200.00px" viewBox="0 0 1024 1024" version="1.1" xmlns="http://www.w3.org/2000/svg"><path d="M104.98048 288.93184l183.95136-183.95136C312.99584 80.93696 360.0384 61.44 393.99424 61.44h259.76832c33.97632 0 80.03584 20.21376 102.89152 45.1584l164.51584 179.46624c22.79424 24.8832 41.39008 72.62208 41.39008 106.496v238.87872c0 33.87392-18.5344 81.55136-41.39008 106.496l-164.51584 179.46624C733.83936 942.2848 687.7184 962.56 653.76256 962.56H393.99424c-33.9968 0-80.9984-19.49696-105.0624-43.54048l-183.95136-183.95136C80.93696 711.00416 61.44 664.064 61.44 630.21056V393.78944c0-33.73056 19.49696-80.7936 43.54048-104.8576zM724.7872 724.7872c15.40096-15.40096 16.75264-39.936 3.13344-56.9344l-97.15712-121.2416a55.33696 55.33696 0 0 1 0-69.20192l97.15712-121.2416a42.72128 42.72128 0 0 0-60.04736-60.04736l-121.2416 97.15712a55.33696 55.33696 0 0 1-69.2224 0l-121.2416-97.15712a42.72128 42.72128 0 0 0-60.04736 60.04736l97.15712 121.2416a55.33696 55.33696 0 0 1 0 69.2224l-97.15712 121.2416a42.72128 42.72128 0 0 0 60.04736 60.04736l121.2416-97.15712a55.33696 55.33696 0 0 1 69.2224 0l121.2416 97.15712c16.9984 13.6192 41.51296 12.26752 56.9344-3.13344z" fill="#F97583" /></svg>