<?xml version="1.0" standalone="no"?><!DOCTYPE svg PUBLIC "-//W3C//DTD SVG 1.1//EN" "http://www.w3.org/Graphics/SVG/1.1/DTD/svg11.dtd"><svg class="icon" width="200px" height="200.00px" viewBox="0 0 1024 1024" version="1.1" xmlns="http://www.w3.org/2000/svg"><path d="M0 512a512 512 0 1 0 1024 0A512 512 0 0 0 0 512z" fill="#1DA2F8" /><path d="M512 75.776a6.272 6.272 0 0 1-6.272-6.208V40.96a6.272 6.272 0 0 1 12.544 0v28.608A6.272 6.272 0 0 1 512 75.712z m0 913.536a6.272 6.272 0 0 1-6.272-6.272v-28.544a6.272 6.272 0 1 1 12.544 0v28.544a6.272 6.272 0 0 1-6.272 6.272z m-76.8-906.88a6.272 6.272 0 0 1-6.208-5.12l-4.928-28.16a6.272 6.272 0 0 1 12.288-2.176l4.992 28.16a6.272 6.272 0 0 1-6.208 7.296zM593.792 982.08a6.272 6.272 0 0 1-6.144-5.12l-4.992-28.16a6.272 6.272 0 1 1 12.352-2.176l4.928 28.16a6.272 6.272 0 0 1-6.144 7.296zM360.64 102.4a6.272 6.272 0 0 1-5.824-4.096l-9.792-26.88a6.272 6.272 0 0 1 11.712-4.224l9.792 26.816a6.272 6.272 0 0 1-5.888 8.384z m312.448 858.432a6.272 6.272 0 0 1-5.824-4.16l-9.792-26.88a6.272 6.272 0 0 1 11.712-4.224l9.792 26.88a6.272 6.272 0 0 1-5.888 8.32zM290.752 135.04a6.272 6.272 0 0 1-5.376-3.072L271.104 107.2a6.272 6.272 0 0 1 10.816-6.272l14.272 24.768a6.272 6.272 0 0 1-5.44 9.344zM747.52 926.144a6.272 6.272 0 0 1-5.44-3.072l-14.272-24.768a6.272 6.272 0 0 1 10.88-6.272l14.208 24.768a6.272 6.272 0 0 1-5.376 9.344z m-519.936-746.88a6.208 6.208 0 0 1-4.8-2.176L204.416 155.2a6.272 6.272 0 0 1 9.6-8.064l18.368 21.888a6.272 6.272 0 0 1-4.8 10.24z m587.2 699.84a6.208 6.208 0 0 1-4.8-2.24l-18.368-21.888a6.272 6.272 0 1 1 9.6-8.064l18.368 21.888a6.272 6.272 0 0 1-4.8 10.24zM173.056 233.856a6.208 6.208 0 0 1-4.032-1.472L147.2 214.016a6.272 6.272 0 1 1 8.064-9.6l21.888 18.368a6.272 6.272 0 0 1-4.032 11.072z m699.776 587.136a6.208 6.208 0 0 1-4.032-1.408l-21.888-18.368a6.272 6.272 0 0 1 8.064-9.6l21.888 18.368a6.272 6.272 0 0 1-4.032 11.008z m-744-523.968a6.208 6.208 0 0 1-3.2-0.832l-24.704-14.336a6.272 6.272 0 1 1 6.272-10.752l24.768 14.272a6.272 6.272 0 0 1-3.2 11.648z m791.04 456.768a6.208 6.208 0 0 1-3.072-0.896l-24.704-14.272a6.272 6.272 0 1 1 6.208-10.816l24.768 14.272a6.272 6.272 0 0 1-3.2 11.712zM96.256 366.912a6.208 6.208 0 0 1-2.112-0.384l-26.88-9.792a6.272 6.272 0 0 1 4.288-11.712l26.88 9.792a6.272 6.272 0 0 1-2.176 12.096zM954.688 679.36a6.272 6.272 0 0 1-2.112-0.384l-26.88-9.792a6.272 6.272 0 1 1 4.288-11.712l26.88 9.792a6.272 6.272 0 0 1-2.176 12.096z m-878.4-237.952l-1.088-0.064-28.16-4.992a6.272 6.272 0 0 1 2.176-12.288l28.16 4.928a6.272 6.272 0 0 1-1.088 12.416z m899.584 158.656c-0.32 0-0.704 0-1.088-0.128l-28.16-4.928a6.272 6.272 0 0 1 2.176-12.352l28.16 4.992a6.272 6.272 0 0 1-1.088 12.416zM69.504 518.272H40.96a6.272 6.272 0 0 1 0-12.544h28.544a6.272 6.272 0 0 1 0 12.544z m913.536 0h-28.544a6.272 6.272 0 1 1 0-12.544h28.544a6.272 6.272 0 0 1 0 12.544zM48.128 600.064a6.272 6.272 0 0 1-1.088-12.416l28.16-4.992a6.272 6.272 0 0 1 2.112 12.352l-28.16 4.928a6.4 6.4 0 0 1-1.024 0.128z m899.584-158.656a6.272 6.272 0 0 1-1.088-12.416l28.16-4.928a6.272 6.272 0 0 1 2.176 12.288l-28.16 4.992a6.4 6.4 0 0 1-1.088 0.064zM69.376 679.36a6.272 6.272 0 0 1-2.112-12.16l26.88-9.728a6.272 6.272 0 0 1 4.224 11.712l-26.88 9.792a6.144 6.144 0 0 1-2.112 0.384z m858.432-312.448a6.272 6.272 0 0 1-2.176-12.16l26.88-9.728a6.272 6.272 0 0 1 4.288 11.712l-26.88 9.792a6.272 6.272 0 0 1-2.112 0.384z m-823.68 386.88a6.272 6.272 0 0 1-3.2-11.712l24.768-14.272a6.272 6.272 0 0 1 6.272 10.88L107.2 752.896a6.208 6.208 0 0 1-3.136 0.896z m791.04-456.768a6.272 6.272 0 0 1-3.072-11.648l24.704-14.272a6.272 6.272 0 1 1 6.272 10.752l-24.768 14.336a6.208 6.208 0 0 1-3.136 0.832z m-744 523.968a6.272 6.272 0 0 1-4.032-11.008l21.888-18.368a6.272 6.272 0 0 1 8.064 9.6L155.2 819.584a6.208 6.208 0 0 1-4.032 1.408z m699.776-587.136a6.272 6.272 0 0 1-4.032-11.072l21.888-18.368a6.272 6.272 0 0 1 8.064 9.6l-21.888 18.368a6.208 6.208 0 0 1-4.032 1.472zM209.28 879.104a6.272 6.272 0 0 1-4.8-10.24l18.368-21.952a6.272 6.272 0 0 1 9.6 8.064l-18.368 21.888a6.208 6.208 0 0 1-4.8 2.24z m587.2-699.776a6.272 6.272 0 0 1-4.8-10.24l18.368-21.952a6.272 6.272 0 0 1 9.6 8.064l-18.368 21.888a6.272 6.272 0 0 1-4.8 2.24z m-520 746.88a6.272 6.272 0 0 1-5.376-9.408l14.272-24.704a6.208 6.208 0 1 1 10.816 6.208l-14.272 24.768a6.272 6.272 0 0 1-5.44 3.072zM733.248 135.04a6.272 6.272 0 0 1-5.44-9.344l14.272-24.768a6.208 6.208 0 1 1 10.88 6.272l-14.336 24.768a6.272 6.272 0 0 1-5.376 3.072zM350.912 960.896a6.272 6.272 0 0 1-5.888-8.384l9.792-26.88a6.272 6.272 0 0 1 11.712 4.288l-9.792 26.88a6.272 6.272 0 0 1-5.824 4.096zM663.36 102.4a6.272 6.272 0 0 1-5.888-8.384l9.792-26.88a6.272 6.272 0 0 1 11.712 4.288l-9.792 26.88a6.272 6.272 0 0 1-5.824 4.096zM430.208 982.144a6.272 6.272 0 0 1-6.144-7.36l4.928-28.16a6.272 6.272 0 0 1 12.352 2.176l-4.992 28.16a6.272 6.272 0 0 1-6.144 5.12zM588.864 82.496a6.272 6.272 0 0 1-6.208-7.296l4.992-28.16a6.272 6.272 0 0 1 12.288 2.176l-4.928 28.16a6.272 6.272 0 0 1-6.144 5.12z m-111.36 41.152a6.272 6.272 0 0 1-6.272-5.76l-6.528-74.496a6.272 6.272 0 1 1 12.48-1.152l6.528 74.624a6.272 6.272 0 0 1-6.272 6.784zM552.96 987.52a6.272 6.272 0 0 1-6.208-5.76l-6.528-74.624a6.272 6.272 0 1 1 12.48-1.088l6.528 74.624a6.272 6.272 0 0 1-6.272 6.848zM409.472 135.68a6.272 6.272 0 0 1-6.016-4.672L384 58.688a6.208 6.208 0 1 1 12.032-3.264l19.392 72.32a6.208 6.208 0 0 1-6.016 7.872zM633.92 973.248a6.272 6.272 0 0 1-6.016-4.672l-19.392-72.32a6.272 6.272 0 1 1 12.032-3.2l19.392 72.32a6.272 6.272 0 0 1-6.016 7.872zM344.64 159.232a6.272 6.272 0 0 1-5.76-3.584L307.328 87.68a6.272 6.272 0 1 1 11.328-5.312l31.68 67.904a6.272 6.272 0 0 1-5.696 8.96z m366.464 785.92a6.272 6.272 0 0 1-5.696-3.584l-31.68-67.904a6.272 6.272 0 1 1 11.328-5.312l31.68 67.904a6.272 6.272 0 0 1-5.632 8.896zM284.8 193.792a6.272 6.272 0 0 1-5.12-2.688l-43.008-61.376a6.272 6.272 0 0 1 10.24-7.168L289.856 184a6.272 6.272 0 0 1-5.12 9.792z m497.28 710.272a6.272 6.272 0 0 1-5.12-2.624L734.08 840a6.272 6.272 0 0 1 10.176-7.104l42.944 61.376a6.272 6.272 0 0 1-5.12 9.792zM232 238.144a6.208 6.208 0 0 1-4.48-1.792l-52.928-52.992a6.272 6.272 0 0 1 8.832-8.832l52.992 52.992a6.272 6.272 0 0 1-4.48 10.624z m613.12 613.12a6.208 6.208 0 0 1-4.416-1.792l-52.992-52.992a6.272 6.272 0 0 1 8.832-8.832l52.992 52.992a6.272 6.272 0 0 1-4.416 10.688z m-657.6-560.128a6.208 6.208 0 0 1-3.584-1.152l-61.376-43.008a6.272 6.272 0 0 1 7.168-10.24l61.44 43.008a6.272 6.272 0 0 1-3.648 11.392zM897.856 788.48a6.208 6.208 0 0 1-3.584-1.152l-61.44-42.944a6.272 6.272 0 0 1 7.232-10.24l61.376 43.008a6.272 6.272 0 0 1-3.584 11.328zM152.96 350.848a6.208 6.208 0 0 1-2.688-0.64l-67.84-31.616a6.272 6.272 0 0 1 5.248-11.328l67.84 31.68a6.272 6.272 0 0 1-2.56 11.904z m785.92 366.464a6.208 6.208 0 0 1-2.688-0.64l-67.84-31.616a6.272 6.272 0 1 1 5.248-11.328l67.84 31.68a6.272 6.272 0 0 1-2.56 11.904z m-809.6-301.568a6.144 6.144 0 0 1-1.6-0.256L55.424 396.16a6.272 6.272 0 1 1 3.2-12.032l72.32 19.392a6.272 6.272 0 0 1-1.536 12.288z m837.632 224.384a6.144 6.144 0 0 1-1.6-0.192l-72.384-19.392a6.208 6.208 0 1 1 3.2-12.032l72.384 19.392a6.208 6.208 0 0 1-1.6 12.224zM117.376 483.712h-0.512l-74.688-6.528a6.272 6.272 0 1 1 1.152-12.48l74.624 6.528a6.272 6.272 0 0 1-0.576 12.48z m863.872 75.648h-0.576l-74.624-6.528a6.208 6.208 0 1 1 1.088-12.48l74.624 6.528a6.208 6.208 0 0 1-0.512 12.48z m-938.496 0a6.272 6.272 0 0 1-0.512-12.48l74.624-6.528a6.208 6.208 0 0 1 5.312 10.24 6.272 6.272 0 0 1-4.224 2.24l-74.624 6.528h-0.576z m863.872-75.52a6.272 6.272 0 0 1-0.576-12.544l74.624-6.528a6.208 6.208 0 0 1 5.376 10.24 6.272 6.272 0 0 1-4.288 2.24l-74.624 6.528h-0.512zM56.96 640.064a6.272 6.272 0 0 1-1.6-12.224l72.32-19.392a6.208 6.208 0 1 1 3.264 12.032L58.688 640a6.208 6.208 0 0 1-1.664 0.192zM894.528 415.68a6.272 6.272 0 0 1-1.6-12.288L965.312 384a6.208 6.208 0 1 1 3.264 12.032l-72.32 19.392a6.336 6.336 0 0 1-1.664 0.256zM85.12 717.312a6.272 6.272 0 0 1-2.688-11.904l67.904-31.68a6.272 6.272 0 0 1 5.312 11.328L87.68 716.8a6.208 6.208 0 0 1-2.624 0.576z m785.92-366.464a6.272 6.272 0 0 1-2.688-11.904L936.32 307.2a6.272 6.272 0 1 1 5.312 11.328l-67.904 31.68a6.208 6.208 0 0 1-2.688 0.576zM126.08 788.416a6.272 6.272 0 0 1-3.584-11.328l61.44-43.008a6.272 6.272 0 1 1 7.104 10.24l-61.376 42.944a6.208 6.208 0 0 1-3.584 1.152z m710.4-497.344a6.272 6.272 0 0 1-3.584-11.392l61.376-42.944a6.272 6.272 0 1 1 7.168 10.24L840 289.92a6.208 6.208 0 0 1-3.52 1.152zM178.944 851.328a6.272 6.272 0 0 1-4.48-10.688l53.056-52.992a6.272 6.272 0 0 1 8.832 8.832l-52.992 52.992a6.208 6.208 0 0 1-4.48 1.856z m613.12-613.12a6.272 6.272 0 0 1-4.416-10.688l52.992-52.992a6.272 6.272 0 0 1 8.832 8.832l-52.992 52.992a6.272 6.272 0 0 1-4.416 1.792zM241.792 904a6.272 6.272 0 0 1-5.12-9.792l43.008-61.44A6.272 6.272 0 0 1 289.92 840l-43.008 61.376a6.272 6.272 0 0 1-5.12 2.624zM739.2 193.792a6.272 6.272 0 0 1-5.12-9.856l43.008-61.376a6.272 6.272 0 0 1 10.24 7.168l-43.008 61.376a6.272 6.272 0 0 1-5.12 2.688z m-426.24 751.36a6.272 6.272 0 0 1-5.696-8.896l31.68-67.84a6.272 6.272 0 1 1 11.328 5.184l-31.68 67.968a6.208 6.208 0 0 1-5.632 3.584z m366.464-785.92a6.272 6.272 0 0 1-5.696-8.896l31.68-67.84a6.272 6.272 0 0 1 11.328 5.248l-31.68 67.84a6.272 6.272 0 0 1-5.632 3.648z m-289.28 814.016a6.272 6.272 0 0 1-6.144-7.872l19.392-72.384a6.208 6.208 0 1 1 12.032 3.2l-19.392 72.384a6.272 6.272 0 0 1-6.016 4.672z m224.32-837.632a6.272 6.272 0 0 1-6.016-7.872l19.392-72.32a6.208 6.208 0 0 1 11.392-1.536 6.208 6.208 0 0 1 0.64 4.736l-19.392 72.32a6.272 6.272 0 0 1-6.016 4.672zM470.976 987.52a6.272 6.272 0 0 1-6.272-6.784l6.528-74.624a6.208 6.208 0 1 1 12.48 1.088l-6.528 74.624a6.272 6.272 0 0 1-6.208 5.76z m75.52-863.808a6.272 6.272 0 0 1-6.208-6.784l6.528-74.688a6.208 6.208 0 0 1 6.784-5.76 6.272 6.272 0 0 1 5.696 6.848l-6.528 74.624a6.208 6.208 0 0 1-6.272 5.696z" fill="#F2F2F2" /><path d="M573.824 573.824l275.904-399.552-399.552 275.84-275.904 399.616z" fill="#F2F2F2" /><path d="M573.824 573.824l275.904-399.552-675.456 675.456z" fill="#CCCCCC" /><path d="M573.824 573.824l275.904-399.552-399.552 275.84z" fill="#FF525D" /><path d="M573.824 573.824l275.904-399.552L512 512z" fill="#EF4152" /></svg>